<svg id="レイヤー_1" data-name="レイヤー 1" xmlns="http://www.w3.org/2000/svg" viewBox="0 0 50 50"><defs><style>.cls-1{fill:#4dd964;}</style></defs><title>power</title><g id="編集モード"><path class="cls-1" d="M24.65,26.69a3,3,0,0,0,2.26-1,3.12,3.12,0,0,0,1-2.27V7.34a3.12,3.12,0,0,0-1-2.27A3.15,3.15,0,0,0,22.46,5a.6.6,0,0,0-.08.08,3.12,3.12,0,0,0-1,2.27V23.47a3.27,3.27,0,0,0,3.23,3.22Z"/><path class="cls-1" d="M42,18.05a18.87,18.87,0,0,0-5.71-6.8,3.11,3.11,0,0,0-2.39-.63,2.94,2.94,0,0,0-2.12,1.26,3,3,0,0,0-.61,2.38,3.14,3.14,0,0,0,1.24,2.13,12.94,12.94,0,0,1-2.76,22.24,12.87,12.87,0,0,1-16.87-6.88,12.44,12.44,0,0,1-1-5,12.63,12.63,0,0,1,5.13-10.31,3.15,3.15,0,0,0,1.25-2.13,3.08,3.08,0,0,0-.62-2.38,2.9,2.9,0,0,0-2.1-1.26A3.15,3.15,0,0,0,13,11.3,19.3,19.3,0,0,0,32.14,44.51,19.06,19.06,0,0,0,42.46,34.2,18.66,18.66,0,0,0,44,26.69,19,19,0,0,0,42,18.05Z"/></g></svg>